<svg width="18" height="19" viewBox="0 0 18 19" fill="none" xmlns="http://www.w3.org/2000/svg">
<rect y="0.5" width="18" height="18" rx="9" fill="white"/>
<path d="M5.64583 5.125C6.20933 5.125 6.66667 5.58233 6.66667 6.14583V7.16667H5.64583C5.37509 7.16667 5.11544 7.05912 4.924 6.86767C4.73255 6.67623 4.625 6.41658 4.625 6.14583C4.625 5.87509 4.73255 5.61544 4.924 5.424C5.11544 5.23255 5.37509 5.125 5.64583 5.125ZM7.54167 7.16667V6.14583C7.54167 5.77087 7.43048 5.40433 7.22216 5.09257C7.01384 4.7808 6.71776 4.5378 6.37134 4.39431C6.02492 4.25082 5.64373 4.21328 5.27598 4.28643C4.90822 4.35958 4.57041 4.54014 4.30528 4.80528C4.04014 5.07041 3.85958 5.40822 3.78643 5.77598C3.71328 6.14373 3.75082 6.52492 3.89431 6.87134C4.0378 7.21776 4.2808 7.51384 4.59257 7.72216C4.90433 7.93048 5.27087 8.04167 5.64583 8.04167H6.66667V10.9583H5.64583C5.27087 10.9583 4.90433 11.0695 4.59257 11.2778C4.2808 11.4862 4.0378 11.7822 3.89431 12.1287C3.75082 12.4751 3.71328 12.8563 3.78643 13.224C3.85958 13.5918 4.04014 13.9296 4.30528 14.1947C4.57041 14.4599 4.90822 14.6404 5.27598 14.7136C5.64373 14.7867 6.02492 14.7492 6.37134 14.6057C6.71776 14.4622 7.01384 14.2192 7.22216 13.9074C7.43048 13.5957 7.54167 13.2291 7.54167 12.8542V11.8333H10.4583V12.8542C10.4583 13.2291 10.5695 13.5957 10.7778 13.9074C10.9862 14.2192 11.2822 14.4622 11.6287 14.6057C11.9751 14.7492 12.3563 14.7867 12.724 14.7136C13.0918 14.6404 13.4296 14.4599 13.6947 14.1947C13.9599 13.9296 14.1404 13.5918 14.2136 13.224C14.2867 12.8563 14.2492 12.4751 14.1057 12.1287C13.9622 11.7822 13.7192 11.4862 13.4074 11.2778C13.0957 11.0695 12.7291 10.9583 12.3542 10.9583H11.3333V8.04167H12.3542C12.7291 8.04167 13.0957 7.93048 13.4074 7.72216C13.7192 7.51384 13.9622 7.21776 14.1057 6.87134C14.2492 6.52492 14.2867 6.14373 14.2136 5.77598C14.1404 5.40822 13.9599 5.07041 13.6947 4.80528C13.4296 4.54014 13.0918 4.35958 12.724 4.28643C12.3563 4.21328 11.9751 4.25082 11.6287 4.39431C11.2822 4.5378 10.9862 4.7808 10.7778 5.09257C10.5695 5.40433 10.4583 5.77087 10.4583 6.14583V7.16667H7.54167ZM7.54167 8.04167H10.4583V10.9583H7.54167V8.04167ZM11.3333 7.16667V6.14583C11.3333 5.94393 11.3932 5.74656 11.5054 5.57869C11.6175 5.41081 11.777 5.27997 11.9635 5.20271C12.15 5.12544 12.3553 5.10523 12.5533 5.14462C12.7513 5.184 12.9332 5.28123 13.076 5.424C13.2188 5.56676 13.316 5.74866 13.3554 5.94668C13.3948 6.1447 13.3746 6.34996 13.2973 6.53649C13.22 6.72302 13.0892 6.88246 12.9213 6.99463C12.7534 7.1068 12.5561 7.16667 12.3542 7.16667H11.3333ZM11.3333 11.8333H12.3542C12.5561 11.8333 12.7534 11.8932 12.9213 12.0054C13.0892 12.1175 13.22 12.277 13.2973 12.4635C13.3746 12.65 13.3948 12.8553 13.3554 13.0533C13.316 13.2513 13.2188 13.4332 13.076 13.576C12.9332 13.7188 12.7513 13.816 12.5533 13.8554C12.3553 13.8948 12.15 13.8746 11.9635 13.7973C11.777 13.72 11.6175 13.5892 11.5054 13.4213C11.3932 13.2534 11.3333 13.0561 11.3333 12.8542V11.8333ZM6.66667 11.8333V12.8542C6.66667 13.0561 6.6068 13.2534 6.49463 13.4213C6.38246 13.5892 6.22302 13.72 6.03649 13.7973C5.84996 13.8746 5.6447 13.8948 5.44668 13.8554C5.24866 13.816 5.06676 13.7188 4.924 13.576C4.78123 13.4332 4.684 13.2513 4.64462 13.0533C4.60523 12.8553 4.62544 12.65 4.70271 12.4635C4.77997 12.277 4.91081 12.1175 5.07869 12.0054C5.24656 11.8932 5.44393 11.8333 5.64583 11.8333H6.66667Z" fill="#1F1F1F"/>
</svg>
