<svg width="32" height="32" viewBox="0 0 32 32" fill="none" xmlns="http://www.w3.org/2000/svg">
<rect width="32" height="32" rx="16" fill="#4F4F4F"/>
<path d="M12.1667 11C12.8107 11 13.3333 11.5227 13.3333 12.1667V13.3333H12.1667C11.8572 13.3333 11.5605 13.2104 11.3417 12.9916C11.1229 12.7728 11 12.4761 11 12.1667C11 11.8572 11.1229 11.5605 11.3417 11.3417C11.5605 11.1229 11.8572 11 12.1667 11ZM14.3333 13.3333V12.1667C14.3333 11.7381 14.2063 11.3192 13.9682 10.9629C13.7301 10.6066 13.3917 10.3289 12.9958 10.1649C12.5999 10.0009 12.1643 9.95803 11.744 10.0416C11.3237 10.1252 10.9376 10.3316 10.6346 10.6346C10.3316 10.9376 10.1252 11.3237 10.0416 11.744C9.95803 12.1643 10.0009 12.5999 10.1649 12.9958C10.3289 13.3917 10.6066 13.7301 10.9629 13.9682C11.3192 14.2063 11.7381 14.3333 12.1667 14.3333H13.3333V17.6667H12.1667C11.7381 17.6667 11.3192 17.7937 10.9629 18.0318C10.6066 18.2699 10.3289 18.6083 10.1649 19.0042C10.0009 19.4001 9.95803 19.8357 10.0416 20.256C10.1252 20.6763 10.3316 21.0624 10.6346 21.3654C10.9376 21.6684 11.3237 21.8748 11.744 21.9584C12.1643 22.042 12.5999 21.9991 12.9958 21.8351C13.3917 21.6711 13.7301 21.3934 13.9682 21.0371C14.2063 20.6808 14.3333 20.2619 14.3333 19.8333V18.6667H17.6667V19.8333C17.6667 20.2619 17.7937 20.6808 18.0318 21.0371C18.2699 21.3934 18.6083 21.6711 19.0042 21.8351C19.4001 21.9991 19.8357 22.042 20.256 21.9584C20.6763 21.8748 21.0624 21.6684 21.3654 21.3654C21.6684 21.0624 21.8748 20.6763 21.9584 20.256C22.042 19.8357 21.9991 19.4001 21.8351 19.0042C21.6711 18.6083 21.3934 18.2699 21.0371 18.0318C20.6808 17.7937 20.2619 17.6667 19.8333 17.6667H18.6667V14.3333H19.8333C20.2619 14.3333 20.6808 14.2063 21.0371 13.9682C21.3934 13.7301 21.6711 13.3917 21.8351 12.9958C21.9991 12.5999 22.042 12.1643 21.9584 11.744C21.8748 11.3237 21.6684 10.9376 21.3654 10.6346C21.0624 10.3316 20.6763 10.1252 20.256 10.0416C19.8357 9.95803 19.4001 10.0009 19.0042 10.1649C18.6083 10.3289 18.2699 10.6066 18.0318 10.9629C17.7937 11.3192 17.6667 11.7381 17.6667 12.1667V13.3333H14.3333ZM14.3333 14.3333H17.6667V17.6667H14.3333V14.3333ZM18.6667 13.3333V12.1667C18.6667 11.9359 18.7351 11.7104 18.8633 11.5185C18.9915 11.3266 19.1737 11.1771 19.3869 11.0888C19.6 11.0005 19.8346 10.9774 20.0609 11.0224C20.2872 11.0674 20.4951 11.1785 20.6583 11.3417C20.8215 11.5049 20.9326 11.7128 20.9776 11.9391C21.0226 12.1654 20.9995 12.4 20.9112 12.6131C20.8229 12.8263 20.6734 13.0085 20.4815 13.1367C20.2896 13.2649 20.0641 13.3333 19.8333 13.3333H18.6667ZM18.6667 18.6667H19.8333C20.0641 18.6667 20.2896 18.7351 20.4815 18.8633C20.6734 18.9915 20.8229 19.1737 20.9112 19.3869C20.9995 19.6 21.0226 19.8346 20.9776 20.0609C20.9326 20.2872 20.8215 20.4951 20.6583 20.6583C20.4951 20.8215 20.2872 20.9326 20.0609 20.9776C19.8346 21.0226 19.6 20.9995 19.3869 20.9112C19.1737 20.8229 18.9915 20.6734 18.8633 20.4815C18.7351 20.2896 18.6667 20.0641 18.6667 19.8333V18.6667ZM13.3333 18.6667V19.8333C13.3333 20.0641 13.2649 20.2896 13.1367 20.4815C13.0085 20.6734 12.8263 20.8229 12.6131 20.9112C12.4 20.9995 12.1654 21.0226 11.9391 20.9776C11.7128 20.9326 11.5049 20.8215 11.3417 20.6583C11.1785 20.4951 11.0674 20.2872 11.0224 20.0609C10.9774 19.8346 11.0005 19.6 11.0888 19.3869C11.1771 19.1737 11.3266 18.9915 11.5185 18.8633C11.7104 18.7351 11.9359 18.6667 12.1667 18.6667H13.3333Z" fill="#F6F6F6"/>
</svg>
