<svg width="18" height="19" viewBox="0 0 18 19" fill="none" xmlns="http://www.w3.org/2000/svg">
<rect y="0.5" width="18" height="18" rx="9" fill="white"/>
<path d="M10.1074 10.8184H7.88672V9.65234H10.1074C10.4941 9.65234 10.8066 9.58984 11.0449 9.46484C11.2832 9.33984 11.457 9.16797 11.5664 8.94922C11.6797 8.72656 11.7363 8.47266 11.7363 8.1875C11.7363 7.91797 11.6797 7.66602 11.5664 7.43164C11.457 7.19336 11.2832 7.00195 11.0449 6.85742C10.8066 6.71289 10.4941 6.64062 10.1074 6.64062H8.33789V14H6.86719V5.46875H10.1074C10.7676 5.46875 11.3281 5.58594 11.7891 5.82031C12.2539 6.05078 12.6074 6.37109 12.8496 6.78125C13.0918 7.1875 13.2129 7.65234 13.2129 8.17578C13.2129 8.72656 13.0918 9.19922 12.8496 9.59375C12.6074 9.98828 12.2539 10.291 11.7891 10.502C11.3281 10.7129 10.7676 10.8184 10.1074 10.8184Z" fill="#1F1F1F"/>
</svg>
